<mxfile host="app.diagrams.net" agent="Mozilla/5.0 (Windows NT 10.0; Win64; x64) AppleWebKit/537.36 (KHTML, like Gecko) Chrome/140.0.0.0 Safari/537.36" version="28.2.4">
  <diagram name="Page-1" id="jc5a-dZr8XjSJkpkso33">
    <mxGraphModel dx="1042" dy="561" grid="1" gridSize="10" guides="1" tooltips="1" connect="1" arrows="1" fold="1" page="1" pageScale="1" pageWidth="850" pageHeight="1100" math="0" shadow="0">
      <root>
        <mxCell id="0" />
        <mxCell id="1" parent="0" />
        <mxCell id="2diUOG2xuUV-Zh3pZXNC-1" value="Customer" style="shape=umlActor;verticalLabelPosition=bottom;verticalAlign=top;html=1;outlineConnect=0;" vertex="1" parent="1">
          <mxGeometry x="100" y="50" width="30" height="60" as="geometry" />
        </mxCell>
        <mxCell id="2diUOG2xuUV-Zh3pZXNC-2" value="" style="endArrow=none;dashed=1;html=1;rounded=0;exitX=0.5;exitY=0;exitDx=0;exitDy=0;exitPerimeter=0;" edge="1" parent="1" source="2diUOG2xuUV-Zh3pZXNC-5" target="2diUOG2xuUV-Zh3pZXNC-1">
          <mxGeometry width="50" height="50" relative="1" as="geometry">
            <mxPoint x="115" y="490" as="sourcePoint" />
            <mxPoint x="450" y="170" as="targetPoint" />
            <Array as="points">
              <mxPoint x="115" y="200" />
            </Array>
          </mxGeometry>
        </mxCell>
        <mxCell id="2diUOG2xuUV-Zh3pZXNC-3" value="ATM Machine" style="rounded=1;whiteSpace=wrap;html=1;" vertex="1" parent="1">
          <mxGeometry x="280" y="55" width="120" height="50" as="geometry" />
        </mxCell>
        <mxCell id="2diUOG2xuUV-Zh3pZXNC-4" value="Bank Server" style="rounded=1;whiteSpace=wrap;html=1;" vertex="1" parent="1">
          <mxGeometry x="530" y="55" width="120" height="50" as="geometry" />
        </mxCell>
        <mxCell id="2diUOG2xuUV-Zh3pZXNC-5" value="Customer" style="shape=umlActor;verticalLabelPosition=bottom;verticalAlign=top;html=1;outlineConnect=0;" vertex="1" parent="1">
          <mxGeometry x="100" y="620" width="30" height="60" as="geometry" />
        </mxCell>
        <mxCell id="2diUOG2xuUV-Zh3pZXNC-9" value="" style="endArrow=none;dashed=1;html=1;rounded=0;entryX=0.5;entryY=1;entryDx=0;entryDy=0;exitX=0.5;exitY=0;exitDx=0;exitDy=0;" edge="1" parent="1" source="2diUOG2xuUV-Zh3pZXNC-10" target="2diUOG2xuUV-Zh3pZXNC-3">
          <mxGeometry width="50" height="50" relative="1" as="geometry">
            <mxPoint x="340" y="480" as="sourcePoint" />
            <mxPoint x="450" y="270" as="targetPoint" />
          </mxGeometry>
        </mxCell>
        <mxCell id="2diUOG2xuUV-Zh3pZXNC-10" value="ATM Machine" style="rounded=1;whiteSpace=wrap;html=1;" vertex="1" parent="1">
          <mxGeometry x="280" y="610" width="120" height="50" as="geometry" />
        </mxCell>
        <mxCell id="2diUOG2xuUV-Zh3pZXNC-11" value="Bank Server" style="rounded=1;whiteSpace=wrap;html=1;" vertex="1" parent="1">
          <mxGeometry x="530" y="610" width="120" height="50" as="geometry" />
        </mxCell>
        <mxCell id="2diUOG2xuUV-Zh3pZXNC-12" value="" style="endArrow=none;dashed=1;html=1;rounded=0;entryX=0.5;entryY=1;entryDx=0;entryDy=0;exitX=0.5;exitY=0;exitDx=0;exitDy=0;" edge="1" parent="1" source="2diUOG2xuUV-Zh3pZXNC-11" target="2diUOG2xuUV-Zh3pZXNC-4">
          <mxGeometry width="50" height="50" relative="1" as="geometry">
            <mxPoint x="400" y="320" as="sourcePoint" />
            <mxPoint x="450" y="270" as="targetPoint" />
          </mxGeometry>
        </mxCell>
        <mxCell id="2diUOG2xuUV-Zh3pZXNC-13" value="Insert Card" style="endArrow=classic;html=1;rounded=0;" edge="1" parent="1">
          <mxGeometry width="50" height="50" relative="1" as="geometry">
            <mxPoint x="120" y="160" as="sourcePoint" />
            <mxPoint x="340" y="160" as="targetPoint" />
          </mxGeometry>
        </mxCell>
        <mxCell id="2diUOG2xuUV-Zh3pZXNC-15" value="Prompt for PIN" style="endArrow=classic;html=1;rounded=0;" edge="1" parent="1">
          <mxGeometry width="50" height="50" relative="1" as="geometry">
            <mxPoint x="340" y="200" as="sourcePoint" />
            <mxPoint x="120" y="200" as="targetPoint" />
          </mxGeometry>
        </mxCell>
        <mxCell id="2diUOG2xuUV-Zh3pZXNC-17" value="Enter PIN" style="endArrow=classic;html=1;rounded=0;" edge="1" parent="1">
          <mxGeometry width="50" height="50" relative="1" as="geometry">
            <mxPoint x="110" y="240" as="sourcePoint" />
            <mxPoint x="340" y="240" as="targetPoint" />
          </mxGeometry>
        </mxCell>
        <mxCell id="2diUOG2xuUV-Zh3pZXNC-18" value="Verify PIN" style="endArrow=classic;html=1;rounded=0;" edge="1" parent="1">
          <mxGeometry width="50" height="50" relative="1" as="geometry">
            <mxPoint x="340" y="280" as="sourcePoint" />
            <mxPoint x="590" y="280" as="targetPoint" />
          </mxGeometry>
        </mxCell>
        <mxCell id="2diUOG2xuUV-Zh3pZXNC-19" value="PIN OK/ Invalid" style="endArrow=block;dashed=1;endFill=0;endSize=12;html=1;rounded=0;" edge="1" parent="1">
          <mxGeometry width="160" relative="1" as="geometry">
            <mxPoint x="590" y="320" as="sourcePoint" />
            <mxPoint x="340" y="320" as="targetPoint" />
          </mxGeometry>
        </mxCell>
        <mxCell id="2diUOG2xuUV-Zh3pZXNC-20" value="Select Withdraw Transaction" style="endArrow=classic;html=1;rounded=0;" edge="1" parent="1">
          <mxGeometry width="50" height="50" relative="1" as="geometry">
            <mxPoint x="120" y="360" as="sourcePoint" />
            <mxPoint x="340" y="360" as="targetPoint" />
          </mxGeometry>
        </mxCell>
        <mxCell id="2diUOG2xuUV-Zh3pZXNC-21" value="Enter Amount" style="endArrow=classic;html=1;rounded=0;" edge="1" parent="1">
          <mxGeometry width="50" height="50" relative="1" as="geometry">
            <mxPoint x="120" y="400" as="sourcePoint" />
            <mxPoint x="340" y="400" as="targetPoint" />
          </mxGeometry>
        </mxCell>
        <mxCell id="2diUOG2xuUV-Zh3pZXNC-22" value="Check Balance" style="endArrow=classic;html=1;rounded=0;" edge="1" parent="1">
          <mxGeometry width="50" height="50" relative="1" as="geometry">
            <mxPoint x="340" y="440" as="sourcePoint" />
            <mxPoint x="590" y="440" as="targetPoint" />
          </mxGeometry>
        </mxCell>
        <mxCell id="2diUOG2xuUV-Zh3pZXNC-23" value="Balance OK/ Insufficient" style="endArrow=classic;html=1;rounded=0;" edge="1" parent="1">
          <mxGeometry width="50" height="50" relative="1" as="geometry">
            <mxPoint x="590" y="480" as="sourcePoint" />
            <mxPoint x="340" y="480" as="targetPoint" />
          </mxGeometry>
        </mxCell>
        <mxCell id="2diUOG2xuUV-Zh3pZXNC-24" value="Dispense Cash" style="endArrow=classic;html=1;rounded=0;" edge="1" parent="1">
          <mxGeometry width="50" height="50" relative="1" as="geometry">
            <mxPoint x="340" y="520" as="sourcePoint" />
            <mxPoint x="110" y="520" as="targetPoint" />
          </mxGeometry>
        </mxCell>
        <mxCell id="2diUOG2xuUV-Zh3pZXNC-25" value="Print Receipt (optional)" style="endArrow=classic;html=1;rounded=0;" edge="1" parent="1">
          <mxGeometry width="50" height="50" relative="1" as="geometry">
            <mxPoint x="340" y="560" as="sourcePoint" />
            <mxPoint x="120" y="560" as="targetPoint" />
          </mxGeometry>
        </mxCell>
        <mxCell id="2diUOG2xuUV-Zh3pZXNC-27" value="Eject Card" style="endArrow=classic;html=1;rounded=0;" edge="1" parent="1">
          <mxGeometry width="50" height="50" relative="1" as="geometry">
            <mxPoint x="340" y="600" as="sourcePoint" />
            <mxPoint x="110" y="600" as="targetPoint" />
          </mxGeometry>
        </mxCell>
      </root>
    </mxGraphModel>
  </diagram>
</mxfile>
